<svg width="899" height="308" viewBox="0 0 899 308" fill="none" xmlns="http://www.w3.org/2000/svg">
<g opacity="0.05">
<path fill-rule="evenodd" clip-rule="evenodd" d="M286.511 79.9707C286.447 65.5239 260.962 49.278 250.076 40.9023C228.551 24.3362 206.164 9.03831 183.984 -6.50395C161.805 -22.0462 139.565 -37.5463 118.416 -54.6096C104.683 -65.6859 88.5477 -78.161 79.2344 -93.9771C59.3942 -127.682 121.949 -122.677 138.152 -123.414C179.374 -125.298 226.655 -124.438 265.293 -141.99C288.359 -152.468 297.557 -170.041 292.603 -195.653C291.006 -203.982 286.279 -213.567 290.283 -221.681C294.559 -230.348 304.395 -235.349 312.559 -238.703C342.335 -250.921 376.57 -252.336 408.075 -253.87C442.047 -255.555 476.338 -255.062 510.071 -255.193C524.374 -255.248 539.312 -260.67 552.933 -265.077C570.789 -270.853 588.433 -277.341 606.142 -283.615C645.1 -297.383 685.243 -311.885 726.461 -315.382C752.273 -317.572 780.484 -314.611 800.536 -295.555C810.604 -285.987 815.873 -271.763 821.694 -259.128C828.74 -243.864 835.506 -228.452 843.007 -213.428C867.171 -165.04 901.669 -117.756 957.665 -115.38C966.136 -115.022 974.456 -116.189 982.887 -116.408C988.256 -116.543 993.034 -115.173 995.03 -109.245C1000.05 -94.3773 984.276 -70.9059 977.809 -59.1092C963.649 -33.2869 947.681 -8.62314 932.723 16.681C922.827 33.4155 905.697 56.2844 905.518 76.617C905.358 94.7335 928.192 107.828 940.623 116.751C952.272 125.106 973.378 136.797 974.655 153.793C975.274 162.034 970.124 168.864 964.747 174.164C955.322 183.433 944.464 189.971 935.985 200.546C922.081 217.896 910.464 241.768 912.352 265.146C913.661 281.346 922.42 291.955 933.562 302.096C938.244 306.359 942.045 309.376 942.292 316.298C942.691 327.29 938.611 338.923 935.25 349.114C923.226 385.587 906.149 420.856 887.151 453.785C877.658 470.242 867.402 486.648 854.815 500.686C846.572 509.904 835.454 520.875 822.879 520.863C808.321 520.863 792.916 515.318 778.764 511.173C752.333 503.425 726.221 494.467 700.213 485.279C640.067 464.019 580.487 441.038 521.472 416.335C479.903 398.905 437.452 381.45 398.371 358.278C390.749 353.727 383.555 348.422 376.886 342.432C369.76 336.142 360.918 333.328 351.952 331.229C296.303 318.207 235.337 328.204 179.457 334.474C165.274 336.062 151.09 337.659 136.867 338.771C124.639 339.727 110.001 342.47 98.1165 338.35C74.6995 330.239 95.1704 300.347 103.825 288.167C134.296 245.282 173.609 208.998 210.048 171.956C227.373 154.316 244.83 136.722 261.213 118.083C269.744 108.392 286.567 92.6354 286.511 79.9707Z" stroke="#FF4D4D"/>
<path fill-rule="evenodd" clip-rule="evenodd" d="M297.012 77.5354C287.672 62.2485 271.286 50.9496 257.684 40.3162C238.109 25.0082 217.92 10.5509 198.034 -4.32332C179.231 -18.389 160.388 -32.6147 142.975 -48.588C132.357 -58.3287 119.034 -69.9771 114.005 -84.3839C103.095 -115.61 161.786 -110.873 176.275 -111.69C212.295 -113.711 253.134 -114.174 286.458 -130.615C307.266 -140.882 315.815 -157.908 311.377 -181.546C309.843 -189.725 307.078 -196.707 310.578 -204.843C314.624 -214.26 323.932 -220.13 332.465 -224.274C359.194 -237.257 390.788 -240.016 419.762 -242.311C449.694 -244.682 480.881 -246.354 509.851 -244.619C521.436 -243.928 534.77 -247.849 546.235 -250.856C563.876 -255.488 581.337 -260.832 598.89 -265.801C634.563 -275.908 671.162 -285.645 708.273 -286.752C735.066 -287.553 763.001 -283.215 785.292 -266.45C807.882 -249.449 817.905 -223.095 830.432 -198.042C852.068 -154.729 881.289 -102.067 931.343 -92.9159C938.933 -91.5262 946.228 -92.28 953.81 -91.9389C957.708 -91.7662 962.147 -91.2188 964.124 -87.1633C969.257 -76.6351 955.192 -57.3854 950.458 -49.3208C937.379 -27.0347 922.675 -5.83938 908.969 16.0171C898.083 33.3718 884.285 52.6552 880.075 73.2273C874.966 98.1917 908.35 115.955 920.09 133.533C940.443 164.014 901.882 181.381 882.871 195.914C861.04 212.599 843.02 243.039 862.59 268.854C870.076 278.725 879.288 284.608 882.632 297.49C887.861 317.637 883.906 340.66 879.663 360.575C873.272 390.513 863.157 420.127 849.407 447.184C839.556 466.556 823.214 496.932 799.281 494.654C783.171 493.133 766.792 487.579 751.105 482.668C727.616 475.32 704.422 466.944 681.353 458.243C628.099 438.214 575.433 416.13 523.801 391.84C488.571 375.26 390.301 307.505 382.906 305.087C360.86 297.886 335.793 299.154 313.063 300.27C282.826 301.752 252.742 305.593 222.682 309.151C208.373 310.836 193.992 312.895 179.607 313.725C169.368 314.314 155.922 314.82 146.954 308.541C129.449 296.29 148.951 268.26 157.016 256.401C181.724 220.045 212.979 188.561 242.284 156.37C256.665 140.566 271.266 124.786 284.32 107.713C289.586 100.82 302.784 86.9771 297.012 77.5354Z" stroke="#FF4D4D"/>
<path fill-rule="evenodd" clip-rule="evenodd" d="M309.933 69.6952C284.426 39.1044 249.222 16.3529 218.838 -9.19563C203.589 -22.0226 188.243 -35.1991 175.09 -50.4777C168.248 -58.4224 159.705 -68.4691 158.387 -79.5436C154.864 -109.17 207.763 -105.164 223.595 -106.289C254.206 -108.471 288.788 -110.126 316.559 -125.245C333.526 -134.487 341.882 -149.656 338.711 -169.593C337.305 -178.439 335.116 -185.954 338.711 -194.64C342.353 -203.44 349.942 -209.649 357.627 -214.304C379.711 -227.691 407.154 -231.971 432.018 -235.16C461.185 -238.874 490.572 -240.324 519.941 -239.499C545.663 -238.787 571.262 -246.795 596.377 -252.073C629.648 -259.062 663.522 -265.165 697.569 -264.243C724.457 -263.51 751.557 -257.752 774.544 -242.448C797.901 -226.862 811.945 -203.533 824.606 -178.359C843.746 -140.304 867.599 -89.3081 909.59 -74.8551C915.697 -72.7489 921.388 -72.5172 927.687 -72.1507C930.747 -71.9738 934.697 -71.9191 936.215 -68.5533C939.865 -60.4485 926.369 -44.7361 922.603 -39.2599C910.58 -21.7782 897.547 -5.08426 885.225 12.1657C873.722 28.27 861.193 45.0524 854.047 63.9242C842.676 93.98 879.031 111.554 878.012 140.195C877.377 157.976 861.237 170.727 848.455 179.548C832.718 190.395 810.06 197.526 802.183 217.321C796.316 232.064 805.522 240.645 812.612 251.833C824.626 270.789 825.445 296.485 824.195 318.428C822.509 348.08 815.923 378.169 804.711 405.424C799.631 417.779 793.408 430.631 784.245 440.227C775.662 449.221 767.538 451.525 756.067 449.684C720.95 444.039 685.494 428.306 651.82 414.253C609.51 396.594 567.783 377.099 527.302 355.165C499.699 340.206 471.472 324.38 447.244 303.714C440.929 298.326 434.462 292.471 429.845 285.364C426.354 280.023 424.872 275.613 418.989 272.563C401.55 263.527 377.294 265.89 358.609 266.83C328.733 268.325 299.001 272.306 269.308 275.891C251.982 277.997 219.342 284.623 205.506 268.73C193.563 255.005 207.974 231.605 215.335 219.515C233.956 188.941 257.909 162.108 280.132 134.479C290.318 121.816 300.902 109.056 309.314 94.9784C311.463 91.3894 314.905 86.6335 315.497 82.2736C316.16 77.2777 313.064 73.4654 309.933 69.6952Z" stroke="#FF4D4D"/>
<path fill-rule="evenodd" clip-rule="evenodd" d="M312.125 76.8167C288.556 49.7688 260.161 27.5478 234.859 2.23679C223.513 -9.11187 212.057 -21.017 203.412 -34.8614C198.762 -42.3063 193.825 -51.6778 195.107 -60.9312C198.786 -87.4901 242.293 -85.0914 259.87 -86.647C285.987 -88.9319 315.992 -91.2337 339.085 -105.554C354.213 -114.934 359.886 -128.787 357.062 -146.653C354.03 -165.818 360.809 -179.73 376.236 -190.421C395.579 -203.814 419.995 -209.273 442.453 -213.152C469.511 -217.802 496.912 -219.864 524.322 -219.311C550.978 -218.771 576.805 -223.484 603.286 -226.549C638.395 -230.609 674.632 -232.611 709.346 -224.29C739.57 -217.043 766.87 -201.074 787.335 -176.378C808.711 -150.603 819.293 -118.13 836.651 -89.6148C847.476 -71.8288 862.572 -48.301 882.802 -41.3873C889.549 -39.0813 901.845 -42.1925 896.456 -30.848C893.376 -24.3601 887.611 -18.6689 883.057 -13.3655C875.699 -4.79499 868.097 3.53944 860.615 11.9919C844.668 30.0098 827.59 48.4113 815.638 69.747C800.578 96.6094 822.965 117.283 820.236 144.521C818.77 159.179 809.111 170.877 798.892 180.068C792.281 186.02 785.046 191.176 777.66 195.986C769.946 201.011 760.818 204.839 754.091 211.335C744.504 220.58 748.666 231.524 750.464 243.476C753.628 264.479 754.323 285.815 752.533 306.998C750.344 332.963 745.211 359.669 734.397 383.264C730.191 392.45 724.862 402.189 716.948 408.348C709.034 414.507 700.849 414.085 691.781 412.23C664.885 406.75 638.044 393.997 612.53 381.911C580.596 366.781 549.289 349.872 519.392 330.635C498.755 317.356 478.051 303.01 460.785 285.005C455.764 279.765 450.986 274.154 447.123 267.889C444.471 263.593 443.049 258.05 439.206 254.82C427.181 244.741 403.041 247.751 388.94 248.337C360.797 249.504 333.097 255.056 304.99 256.405C289.65 257.143 265.626 258.998 254.361 245.217C243.767 232.262 253.362 211.858 259.694 199.375C272.138 174.832 288.855 152.965 303.84 130.15C310 120.761 316.751 110.939 320.742 100.218C324.289 90.6653 318.165 83.7515 312.125 76.8167Z" stroke="#FF4D4D"/>
<path fill-rule="evenodd" clip-rule="evenodd" d="M317.922 77.2592C299.162 53.4578 276.546 32.3296 257.65 8.14091C246.59 -6.02458 227.542 -29.8386 236.096 -49.8092C245.48 -71.7542 278.191 -72.3519 297.099 -74.12C319.603 -76.2248 346.031 -79.1 365.29 -92.8024C371.381 -97.1341 376.57 -102.868 378.769 -110.42C381.124 -118.502 378.55 -125.575 378.214 -133.666C377.512 -150.639 387.115 -164.266 399.824 -173.624C417.786 -186.855 440.247 -193.11 461.461 -197.471C485.497 -202.39 509.931 -204.815 534.415 -204.712C557.813 -204.628 580.964 -205.175 604.386 -205.806C635.017 -206.648 666.079 -205.289 695.792 -196.705C725.062 -188.244 751.673 -172.386 772.577 -149.06C792.969 -126.299 806.728 -98.4771 818.779 -70.1377C825.616 -54.0526 837.168 -30.0154 853.477 -21.8908C860.73 -18.2747 867.847 -18.5231 860.135 -9.11869C850.424 2.72307 837.335 12.2243 826.087 22.3527C809.862 36.9686 793.229 51.8708 779.61 69.2483C770.912 80.3449 767.037 91.1132 767.635 105.481C768.098 116.426 770.198 127.257 769.136 138.245C766.649 164.033 747.398 181.718 730.378 198.186C719.43 208.777 709.431 216.856 703.795 231.922C697.129 249.729 694.331 269.102 689.876 287.591C684.983 307.894 679.331 329.014 668.649 346.896C659.142 362.817 647.578 369.957 630.271 365.667C603.276 358.982 576.669 342.514 552.704 327.279C528.312 311.779 504.338 294.351 484.125 273.046C473.213 261.541 465.764 248.032 456.073 235.673C443.883 220.156 416.305 226.033 399.916 227.346C372.71 229.527 287.104 245.843 295.003 192.995C298.3 170.937 311.284 150.579 320.78 131.113C324.716 123.035 330.412 113.34 331.302 104.083C332.272 94.0011 323.562 84.4241 317.922 77.2592Z" stroke="#FF4D4D"/>
<path fill-rule="evenodd" clip-rule="evenodd" d="M327.827 79.2802C313.491 57.7113 296.334 37.3344 284.033 14.0387C276.053 -1.04819 268.217 -21.2061 278.511 -37.169C290.13 -55.1831 315.75 -59.3823 334.575 -61.6778C353.97 -64.0406 377.124 -66.0286 392.976 -79.6877C398.02 -84.0385 402.177 -89.9056 402.951 -96.931C403.698 -103.67 401.591 -110.409 402.289 -117.27C403.853 -132.677 412.707 -145.371 424.122 -154.579C457.89 -181.817 508.148 -187.873 548.89 -188.585C569.283 -188.939 590.271 -187.081 610.795 -185.751C637.429 -184.024 664.102 -180.317 689.502 -171.384C743.507 -152.397 779.705 -110.287 804.985 -57.8871C812.941 -41.3935 819.03 -23.5479 831.499 -10.2932C837.927 -3.44898 836.522 1.46626 829.951 7.70823C819.677 17.4629 807.144 24.9179 795.74 33.0594C779.521 44.6377 762.954 56.3888 748.61 70.2584C738.723 79.8193 731.705 89.0307 729.574 103.368C728.054 113.59 728.409 124.006 727.495 134.291C725.756 153.83 719.799 173.221 709.253 189.429C700.874 202.275 690.899 213.95 680.589 225.082C667.186 239.575 655.851 254.299 645.672 271.501C632.178 294.27 613.217 336.271 581.433 325.155C546.376 312.891 513.519 281.727 491.027 251.532C483.474 241.394 477.273 228.961 467.087 221.485C451.837 210.311 436.364 210.703 418.225 210.749C391.069 210.812 331.977 217.033 331.339 174.106C331.087 157.098 338.062 141.018 341.401 124.659C345.168 106.337 337.619 93.9796 327.827 79.2802Z" stroke="#FF4D4D"/>
<path fill-rule="evenodd" clip-rule="evenodd" d="M338.505 81.2035C324.324 53.0922 292.526 6.89947 316.711 -24.3601C329.486 -40.88 352.082 -47.0882 371.037 -50.7878C386.292 -53.7803 404.688 -54.9041 416.213 -67.5897C424.685 -76.9167 420.924 -90.4904 424.17 -102.166C428.198 -116.64 437.444 -128.484 448.806 -137.386C480.556 -162.265 524.702 -169.9 562.895 -171.524C602.562 -173.208 646.269 -165.333 683.596 -150.185C730.138 -131.292 765.006 -95.5158 789.39 -50.2112C793.889 -41.8481 797.977 -33.2661 802.297 -24.802C805.199 -19.1242 809.503 -13.6316 811.79 -7.65913C815.599 2.29914 811.112 10.4392 803.918 16.9293C793.57 26.2731 780.859 32.9231 769.062 39.9352C752.929 49.5315 736.437 58.9552 721.431 70.214C711.346 77.7901 700.791 85.9511 697.182 99.0956C694.719 108.061 694.208 117.556 694.295 126.841C694.487 146.749 693.497 162.848 684.69 181.081C670.198 211.015 647.914 237.931 624.372 260.326C605.896 277.902 576.661 305.206 549.741 293.454C525.588 282.932 511.46 257.746 495.547 237.383C487.81 227.484 479.119 218.443 468.907 211.402C456.032 202.525 443.911 198.8 428.657 197.348C402.983 194.903 364.271 194.267 356.334 161.775C353.404 149.783 355.076 137.363 353.539 125.216C351.531 109.155 345.659 95.3833 338.505 81.2035Z" stroke="#FF4D4D"/>
<path fill-rule="evenodd" clip-rule="evenodd" d="M353.251 82.2444C343.153 51.4852 329.887 12.7202 354.276 -14.6175C366.089 -27.8608 382.706 -35.2641 398.788 -40.7966C410.306 -44.7616 428.595 -45.9287 435.656 -58.1186C440.843 -67.0893 441.561 -79.4646 446.253 -89.0758C452.7 -102.29 462.466 -113.173 473.925 -121.693C503.775 -143.895 542.654 -152.473 578.11 -154.93C655.149 -160.26 733.537 -117.808 774.762 -47.9639C787.054 -27.1445 802.921 -4.98531 783.056 16.2849C761.369 39.4891 728.698 50.3601 702.813 66.8479C692.923 73.143 680.32 80.7106 674.802 92.1084C671.483 98.9596 671.255 107.555 671.104 115.098C670.705 134.307 669.193 151.583 661.872 169.508C650.565 197.208 632.536 222.763 612.105 243.696C594.287 261.95 568.878 283.401 543.001 270.242C523.161 260.129 510.577 238.665 495.161 222.843C478.006 205.222 456.789 193.348 433.49 187.546C410.825 181.917 385.965 178.12 374.021 154.204C369.923 146 365.642 135.378 364.106 126.297C361.627 111.326 357.996 96.5929 353.251 82.2444Z" stroke="#FF4D4D"/>
<path fill-rule="evenodd" clip-rule="evenodd" d="M369.691 82.461C365.02 51.4007 364.5 19.0136 386.205 -5.46642C396.334 -16.887 409.139 -25.0007 422.088 -32.3519C431.614 -37.761 441.452 -42.3233 448.567 -51.191C455.159 -59.4016 460.17 -68.9349 466.535 -77.3603C474.93 -88.5258 484.975 -98.1913 496.284 -105.986C524.633 -125.486 559.118 -134.607 592.11 -137.77C608.081 -139.308 625.405 -140.108 641.268 -135.917C656.588 -131.873 671.737 -125.478 685.823 -118.021C715.769 -102.186 741.721 -78.9948 760.535 -49.6745C773.436 -29.5631 780.411 -10.0077 763.705 10.3944C744.872 33.3915 715.341 46.0801 691.002 61.0057C674.308 71.2426 655.598 81.2772 652.48 103.032C649.996 120.342 647.98 136.771 641.556 153.133C631.995 177.268 617.936 199.13 600.215 217.423C584.009 234.089 563.506 248.231 540.324 239.329C521.958 232.264 507.708 216.437 491.661 205.122C473.777 192.484 454.129 185.516 433.439 179.913C414.845 174.858 397.337 167.09 385.319 150.597C382.859 147.227 380.276 143.558 378.379 139.787C375.96 134.976 376.147 130.208 375.672 124.815C374.434 110.585 371.803 96.5187 369.691 82.461Z" stroke="#FF4D4D"/>
<path fill-rule="evenodd" clip-rule="evenodd" d="M387.819 79.9223C388.219 50.4197 394.943 22.5373 413.361 -0.45459C421.235 -10.2902 430.637 -18.3916 439.302 -27.4044C446.278 -34.6703 452.871 -41.4215 460.892 -47.4089C479.921 -61.5864 495.385 -79.9327 515.607 -92.5574C542.601 -109.435 573.523 -118.765 604.204 -122.495C619.186 -124.317 634.663 -124.954 649.82 -122.895C662.838 -121.127 675.306 -114.921 686.871 -108.57C709.539 -96.1312 731.549 -78.4516 746.267 -56.0842C778.717 -6.77115 714.739 29.0818 681.903 50.0779C666.801 59.7363 643.726 70.9221 637.54 90.0532C633.118 103.72 630.424 117.619 624.729 130.864C609.432 166.434 578.379 208.27 536.998 202.701C519.291 200.321 503.152 190.654 486.621 184.164C469.6 177.481 452.033 173.755 434.341 169.666C417.807 165.848 404.629 160.413 393.949 145.843C388.845 138.885 389.296 130.556 388.841 122.02C388.099 107.999 387.64 93.8972 387.819 79.9223Z" stroke="#FF4D4D"/>
<path fill-rule="evenodd" clip-rule="evenodd" d="M404.327 76.1431C410.975 31.6117 435.666 -17.0041 471.971 -42.8657C514.677 -73.2875 560.942 -98.9049 611.966 -106.269C635.623 -109.684 661.536 -111.364 683.858 -100.198C700.846 -91.7047 720.579 -79.0097 729.928 -61.1567C752.801 -17.4884 701.925 17.2745 672.939 37.477C657.333 48.3531 637.468 58.9512 625.706 74.8336C618.882 84.0422 615.398 96.2236 609.889 106.337C593.192 136.987 565.709 161.707 531.473 166.128C515.644 168.17 499.698 165.644 483.989 163.636C467.908 161.581 451.627 160.465 435.646 157.598C422.889 155.307 407.854 151.429 403.156 137.024C397.231 118.872 401.614 94.3288 404.327 76.1431Z" stroke="#FF4D4D"/>
<path fill-rule="evenodd" clip-rule="evenodd" d="M420.513 68.9898C430.209 27.1227 450.74 -13.7162 485.256 -38.71C503.56 -51.9634 524.808 -61.1122 545.207 -70.1515C568.331 -80.396 592.491 -88.348 617.166 -92.2924C647.89 -97.206 697.649 -101.635 713.701 -64.6984C729.633 -28.0357 689.373 4.4129 665.566 22.9044C650.302 34.7502 633.966 45.6226 619.382 58.5725C611.474 65.5932 605.382 73.7054 598.691 81.9398C580.195 104.755 553.827 122.817 526.952 132.458C500.904 141.805 468.68 145.944 441.185 142.855C429.321 141.527 420.841 137.048 417.253 124.313C412.281 106.609 416.505 86.2845 420.513 68.9898Z" stroke="#FF4D4D"/>
<path fill-rule="evenodd" clip-rule="evenodd" d="M436.597 57.7134C446.229 20.851 467.005 -12.8179 497.309 -34.9421C531.278 -59.7436 575.02 -73.5251 615.223 -80.5333C636.593 -84.2557 682.903 -94.3483 693.795 -65.4635C704.688 -36.5787 673.199 -8.11358 655.075 7.55631C633.079 26.5457 609.364 44.8804 585.677 61.9184C565.096 76.7322 543.136 91.8775 520.845 103.317C508.272 109.807 495.176 115.106 481.71 119.151C471.739 122.122 459.06 126.554 448.606 124.342C422.239 118.756 431.99 75.3389 436.597 57.7134Z" stroke="#FF4D4D"/>
<path fill-rule="evenodd" clip-rule="evenodd" d="M456.451 46.6748C477.585 -23.0364 544.543 -57.3216 609.014 -69.272C623.995 -72.046 665.991 -82.0474 674.365 -60.7522C682.48 -40.1053 656.673 -15.6195 644.59 -4.0185C607.152 31.9294 560.896 58.5831 517.065 84.9884C503.384 93.2303 478.709 111.116 461.739 102.866C443.312 93.8912 452.073 61.1298 456.451 46.6748Z" stroke="#FF4D4D"/>
<path fill-rule="evenodd" clip-rule="evenodd" d="M478.099 33.2574C496.478 -18.0798 549.935 -47.5235 599.084 -57.2301C611.122 -59.6051 641.695 -66.9997 650.812 -52.6737C659.25 -39.4214 639.114 -20.219 631.581 -12.5885C614.81 4.40315 594.935 18.4007 575.3 31.8551C557.145 44.303 538.793 57.0625 519.69 67.5902C509.628 73.132 490.757 84.9567 479.323 76.3998C467.013 67.1944 474.018 44.6567 478.099 33.2574Z" stroke="#FF4D4D"/>
<path fill-rule="evenodd" clip-rule="evenodd" d="M501.954 18.2585C515.962 -15.2667 553.48 -37.0369 586.575 -44.2711C595.48 -46.2134 614.728 -51.2525 622.24 -42.2993C629.156 -34.0538 618.009 -21.9659 613.063 -16.3833C591.138 8.36145 559.031 30.4644 529.614 44.0397C522.218 47.4524 508.922 54.1516 501.314 47.2629C493.509 40.1887 498.736 25.9562 501.954 18.2585Z" stroke="#FF4D4D"/>
<path fill-rule="evenodd" clip-rule="evenodd" d="M527.26 4.17595C535.154 -12.4713 555.785 -25.0312 572.874 -29.0293C584.901 -31.8407 599.358 -29.4121 588.876 -14.9212C578.464 -0.540923 559.143 12.5932 542.768 18.4159C530.274 22.8563 520.482 18.4754 527.26 4.17595Z" stroke="#FF4D4D"/>
<path fill-rule="evenodd" clip-rule="evenodd" d="M-112.845 119.477C-113.351 86.5881 -129.914 52.407 -121.734 18.895C-115.017 -8.62829 -81.2013 -10.9261 -60.9149 -23.3958C-44.7942 -33.3025 -35.6456 -50.8518 -26.9275 -67.6899C-19.0944 -82.8067 -12.0585 -98.3779 -3.80682 -113.246C1.53486 -122.859 10.7074 -141.733 22.2917 -142.074C33.3816 -142.403 43.5507 -127.694 49.9926 -118.999C58.3918 -107.666 65.8383 -95.5835 73.9943 -84.0692C87.7391 -64.6471 104.231 -50.271 123.114 -36.6651C144.603 -21.1835 166.446 -6.23089 188.645 8.19291C204.989 18.8445 221.444 29.4162 237.155 41.1199C247.009 48.4637 268.758 62.2422 268.858 75.7808C268.906 82.2408 263.106 89.3952 259.195 94.5589C252.578 103.3 245.036 111.292 237.469 119.111C223.378 133.677 208.688 147.581 194.158 161.654C175.299 179.919 157.285 197.885 140.705 218.62C123.564 240.083 107.188 262.254 90.4777 284.121C79.1606 298.934 67.8553 315.571 51.5313 324.661C31.0855 336.024 14.3031 324.042 -6.37402 323.903C-24.161 323.781 -22.8495 280.283 -25.1097 268.187C-27.378 255.945 -32.3768 244.549 -34.3142 232.277C-36.7299 216.958 -36.7618 201.286 -37.3557 185.803C-38.0773 166.865 -38.3643 148.835 -57.5425 141.614C-68.457 137.511 -80.2645 136.648 -91.5618 134.19C-98.8807 132.595 -112.685 129.868 -112.845 119.477Z" stroke="#FF4D4D"/>
<path fill-rule="evenodd" clip-rule="evenodd" d="M-104.101 113.627C-105.965 86.0575 -116.98 50.7709 -106.564 22.3124C-97.6652 -2.00718 -69.8344 -5.15986 -51.0943 -17.935C-35.6239 -28.4721 -28.737 -45.715 -21.0038 -62.6543C-14.7997 -76.243 -8.78319 -89.9622 -1.74065 -103.117C3.44942 -112.811 11.3743 -129.177 22.1656 -131.183C31.8671 -132.987 42.2712 -118.539 47.7168 -111.188C55.6616 -100.457 62.4566 -88.8032 69.4752 -77.3936C81.8076 -57.3521 94.4355 -39.3295 112.485 -24.6071C130.614 -9.82147 150.448 1.23404 170.494 12.7405C186.176 21.7434 201.778 31.0076 216.678 41.4013C227.776 49.1398 243.734 59.0446 248.812 72.844C252.833 83.7604 232.444 101.876 226.431 108.27C214.055 121.416 200.94 133.757 187.801 146.022C171.784 160.968 155.255 174.038 141.11 191.087C115.811 221.568 94.663 259.527 62.1093 282.182C42.4748 295.846 20.6246 299.34 -1.21366 297.296C-9.86112 296.487 -11.9371 283.602 -13.0271 276.087C-14.8396 263.603 -15.0672 250.904 -16.4605 238.369C-17.766 226.635 -20.6645 215.486 -23 203.98C-25.3635 192.322 -26.0262 180.377 -27.7669 168.639C-28.8448 161.351 -29.9108 152.871 -34.6258 147.012C-39.5044 140.947 -47.5531 138.406 -54.5876 136.475C-67.7984 132.884 -102.783 133.082 -104.101 113.627Z" stroke="#FF4D4D"/>
<path fill-rule="evenodd" clip-rule="evenodd" d="M-92.8458 102.086C-95.9814 76.7793 -100.371 45.2598 -87.5972 21.9444C-77.156 2.88037 -54.8874 -1.23215 -38.9819 -13.6539C-25.7526 -23.9835 -20.7556 -40.4125 -14.1889 -55.6797C-8.80052 -68.2025 -3.38417 -80.7799 3.1466 -92.6965C8.09961 -101.734 14.4826 -113.987 24.3167 -117.14C32.7248 -119.834 42.2234 -107.766 46.8848 -101.759C54.8216 -91.5221 61.2925 -80.0517 67.7194 -68.7329C78.2325 -50.2118 87.9069 -30.428 102.87 -15.3629C117.409 -0.743872 134.681 7.88525 152.276 17.5877C165.753 25.0214 179.146 32.7413 191.844 41.6061C201.594 48.4084 213.677 56.4693 218.758 67.7881C223.152 77.5496 211.872 89.1041 206.236 95.9906C196.929 107.356 186.599 117.782 176.414 128.251C165.421 139.544 153.247 149.963 142.61 161.534C120.241 185.885 102.37 212.846 74.8014 231.501C56.9466 243.586 32.9205 254.564 11.8144 252.59C-3.3642 251.167 -2.3656 215.716 -3.82354 204.389C-6.22016 185.868 -10.8496 166.408 -18.2032 149.348C-24.5183 134.729 -39.5251 130.221 -53.3296 126.942C-61.9774 124.883 -71.0406 123.772 -79.4048 120.59C-89.0871 116.903 -91.5317 112.693 -92.8458 102.086Z" stroke="#FF4D4D"/>
<path fill-rule="evenodd" clip-rule="evenodd" d="M-82.3478 90.2237C-84.2147 68.8283 -83.7949 43.528 -71.7018 25.0203C-61.1037 8.80913 -42.2344 4.54102 -28.8139 -8.22948C-18.3399 -18.1926 -14.2262 -34.4375 -8.59335 -47.6133C-1.70923 -63.7231 7.93734 -93.4773 25.3035 -99.5396C41.4584 -105.176 58.3529 -69.1733 64.2016 -58.4376C73.4604 -41.4454 81.204 -22.8111 92.4337 -7.11919C102.104 6.3901 115.061 13.8582 128.813 21.8836C146.347 32.1337 172.968 44.2879 182.343 64.2648C189.331 79.1503 166.608 101.28 158.848 111.594C150.733 122.367 144.62 135.138 136.245 145.532C123.028 161.933 101.613 175.138 83.9305 185.215C66.7402 195.018 44.4168 205.867 24.9158 205.222C12.099 204.799 9.66037 183.911 6.92591 173.707C3.00812 159.201 -2.20095 146.203 -13.3906 136.337C-24.7802 126.294 -38.2047 121.561 -52.3167 117.42C-59.5606 115.309 -67.8239 113.662 -74.3043 109.398C-81.4643 104.759 -81.6282 98.4475 -82.3478 90.2237Z" stroke="#FF4D4D"/>
<path fill-rule="evenodd" clip-rule="evenodd" d="M-69.5575 77.8915C-69.4538 59.4075 -65.4491 39.6969 -53.5745 25.439C-43.6842 13.563 -28.2034 9.59318 -18.7355 -2.54744C-11.2361 -12.1591 -7.41871 -25.6525 -2.39789 -36.8143C3.74267 -50.4924 12.4255 -74.3872 27.6952 -79.1342C42.5983 -83.7552 55.78 -57.4365 61.4942 -47.0224C69.8622 -31.7522 76.6363 -15.5661 85.0801 -0.337785C91.6948 11.6096 99.784 19.3099 110.555 27.0101C123.199 36.0547 140.839 46.0738 147.593 61.0375C152.463 71.8716 140.676 89.1835 136.396 98.728C133.527 105.139 130.901 111.65 129.459 118.598C128.335 124.009 128.223 129.017 124.968 133.663C116.771 145.35 98.7997 146.875 86.6063 150.727C70.4121 155.839 53.2297 161.649 36.2824 162.758C25.8662 163.451 20.5505 153.323 14.6052 146.198C7.58002 137.775 -2.36601 131.718 -11.0528 125.362C-22.5171 116.96 -34.9934 111.734 -47.9001 106.382C-53.7219 103.967 -60.5598 101.597 -65.0706 96.7956C-69.7806 91.8175 -69.5933 84.5626 -69.5575 77.8915Z" stroke="#FF4D4D"/>
<path fill-rule="evenodd" clip-rule="evenodd" d="M-56.123 66.9184C-54.0647 51.3944 -47.6506 36.557 -36.8169 25.5827C-28.5121 17.1572 -17.483 12.4136 -10.8176 2.29032C-4.60696 -7.14627 -0.279063 -17.8762 4.8506 -27.9658C10.2794 -38.6325 18.3449 -56.4609 30.8659 -59.3635C44.3601 -62.4894 54.7551 -44.5051 60.511 -34.5377C67.7827 -21.9415 73.3072 -8.38905 79.8091 4.64104C84.7072 14.3529 90.9553 23.2351 98.3452 30.9919C106.096 39.1689 116.606 47.0004 120.527 58.2443C123.994 68.2033 117.508 80.2518 116.363 90.3498C115.138 101.139 117.284 112.471 110.495 121.735C96.4944 140.84 61.3566 137.297 41.2688 137.706C21.4482 138.127 5.51275 126.436 -10.5264 115.315C-21.1208 107.972 -32.154 101.754 -43.0156 94.9122C-54.0886 87.9317 -57.9339 80.5804 -56.123 66.9184Z" stroke="#FF4D4D"/>
<path fill-rule="evenodd" clip-rule="evenodd" d="M-43.6413 58.0328C-37.5546 35.5429 -18.5442 23.5896 -4.95399 6.59362C6.16567 -7.32025 14.5034 -36.1346 33.2304 -39.9461C54.4919 -44.2721 67.22 -6.09328 74.6119 8.63856C82.8139 24.9768 97.4219 38.2667 103.497 55.562C106.69 64.6398 103.948 73.1104 102.247 82.1839C100.383 92.1471 98.9825 102.334 92.5486 110.353C79.8843 126.135 55.1505 126.025 37.3374 126.46C18.8978 126.911 2.5855 116.096 -12.1063 105.302C-27.6882 93.8715 -49.8757 81.0961 -43.6413 58.0328Z" stroke="#FF4D4D"/>
<path fill-rule="evenodd" clip-rule="evenodd" d="M-33.4463 51.9347C-26.5877 35.9114 -12.1751 22.8848 -0.480231 10.5875C9.28094 0.335598 19.7819 -20.3024 34.6648 -21.7735C52.157 -23.5087 62.7584 -1.47085 69.641 12.0419C76.4152 25.3199 86.1763 39.3398 89.9272 53.913C93.8389 69.0939 83.4225 89.5391 73.4884 100.281C62.4086 112.26 44.2813 116.686 28.7269 116.208C12.4409 115.722 -2.50241 105.822 -14.8365 95.5536C-28.023 84.5765 -41.4225 70.5357 -33.4463 51.9347Z" stroke="#FF4D4D"/>
<path fill-rule="evenodd" clip-rule="evenodd" d="M-23.9874 48.9178C-17.4361 35.5907 -6.07987 24.3168 4.39101 14.2606C12.4715 6.49688 24.3951 -6.70429 36.0532 -7.0276C48.8782 -7.3845 59.7475 3.69625 64.8461 15.0541C69.8723 26.2567 75.1681 40.3018 75.9206 52.5918C77.5544 79.3553 44.2906 109.335 19.3126 106.896C-4.3696 104.582 -37.0499 75.4713 -23.9874 48.9178Z" stroke="#FF4D4D"/>
<path fill-rule="evenodd" clip-rule="evenodd" d="M-15.2384 47.4484C-6.20042 30.0842 15.7529 5.32913 36.0772 4.74123C59.4061 4.06933 65.2625 31.6169 62.2217 51.5805C59.1326 71.9556 32.236 101.447 10.7895 97.4623C-10.1422 93.5737 -25.9496 68.0418 -15.2384 47.4484Z" stroke="#FF4D4D"/>
<path fill-rule="evenodd" clip-rule="evenodd" d="M-6.00195 44.6408C1.65017 30.102 17.9792 11.9422 35.0101 11.3926C55.3028 10.7422 54.92 34 50.3183 48.4758C45.5333 63.5055 24.459 89.1759 6.69045 85.1227C-10.5876 81.166 -13.3351 58.5753 -6.00195 44.6408Z" stroke="#FF4D4D"/>
<path fill-rule="evenodd" clip-rule="evenodd" d="M2.04368 42.9675C7.09461 32.5935 19.7359 19.4818 31.7534 19.0623C46.4423 18.558 43.5869 37.005 39.7917 45.9086C35.2807 56.503 20.1599 74.9119 7.47054 71.9285C-5.02282 68.9917 -2.12344 51.5151 2.04368 42.9675Z" stroke="#FF4D4D"/>
</g>
</svg>
